/* XPM */
gchar * gtktetcolor_xpm[] = {
"56 56 69 1",
" 	c None",
".	c #534AAF",
"+	c #342ECD",
"@	c #443CBE",
"#	c #63949A",
"$	c #34C4BE",
"%	c #736691",
"&	c #555074",
"*	c #393C39",
"=	c #0000FF",
"-	c #1A17E6",
";	c #4EAAAA",
">	c #00FAE6",
",	c #685D9B",
"'	c #4B467E",
")	c #2F2AD2",
"!	c #599FA2",
"~	c #1ADFD2",
"{	c #6E6296",
"]	c #504B79",
"^	c #639663",
"/	c #4EAC4E",
"(	c #59A159",
"_	c #96626E",
":	c #B4464E",
"<	c #8C6B78",
"[	c #876772",
"}	c #A53AA5",
"|	c #7C4D7C",
"1	c #34C734",
"2	c #00FF00",
"3	c #1AE31A",
"4	c #FF0000",
"5	c #9B5D68",
"6	c #FF00FF",
"7	c #916691",
"8	c #9B5D9B",
"9	c #966296",
"0	c #788078",
"a	c #689068",
"b	c #7D7A86",
"c	c #688F96",
"d	c #697469",
"e	c #CD2ECD",
"f	c #E617E6",
"g	c #3FA03F",
"h	c #CD2E34",
"i	c #E6171A",
"j	c #9B9068",
"k	c #FFFF00",
"l	c #A05863",
"m	c #AA4F59",
"n	c #6E8A92",
"o	c #8C8078",
"p	c #B4AC4E",
"q	c #B446B4",
"r	c #8B598B",
"s	c #474747",
"t	c #44B744",
"u	c #2FCD2F",
"v	c #6E8B6E",
"w	c #594FAA",
"x	c #2FCAC2",
"y	c #44B4B2",
"z	c #4E46B4",
"A	c #53A653",
"B	c #738573",
"C	c #6358A0",
"D	c #53A4A6",
".+++++++++@#$$$$$$$$$$%++++++++++&**********************",
"+=========-;>>>>>>>>>>,=========='**********************",
"+=========-;>>>>>>>>>>,=========='**********************",
"+=========-;>>>>>>>>>>,=========='**********************",
"+=========-;>>>>>>>>>>,=========='**********************",
"+=========-;>>>>>>>>>>,=========='**********************",
"+=========-;>>>>>>>>>>,=========='**********************",
"+=========-;>>>>>>>>>>,=========='**********************",
"+=========-;>>>>>>>>>>,=========='**********************",
"+=========-;>>>>>>>>>>,=========='**********************",
"@---------)!~~~~~~~~~~{----------]**********************",
"^/////////(_::::::::::<::::::::::[}}}}}}}}}}|***********",
"12222222223:44444444445444444444456666666666}***********",
"12222222223:44444444445444444444456666666666}***********",
"12222222223:44444444445444444444456666666666}***********",
"12222222223:44444444445444444444456666666666}***********",
"12222222223:44444444445444444444456666666666}***********",
"12222222223:44444444445444444444456666666666}***********",
"12222222223:44444444445444444444456666666666}***********",
"12222222223:44444444445444444444456666666666}***********",
"12222222223:44444444445444444444456666666666}***********",
"12222222223:44444444445444444444456666666666}***********",
"788888888890aaaaaaaaaabccccccccccbaaaaaaaaaad***********",
"e666666666f/2222222222c>>>>>>>>>>c2222222222g***********",
"e666666666f/2222222222c>>>>>>>>>>c2222222222g***********",
"e666666666f/2222222222c>>>>>>>>>>c2222222222g***********",
"e666666666f/2222222222c>>>>>>>>>>c2222222222g***********",
"e666666666f/2222222222c>>>>>>>>>>c2222222222g***********",
"e666666666f/2222222222c>>>>>>>>>>c2222222222g***********",
"e666666666f/2222222222c>>>>>>>>>>c2222222222g***********",
"e666666666f/2222222222c>>>>>>>>>>c2222222222g***********",
"e666666666f/2222222222c>>>>>>>>>>c2222222222g***********",
"e666666666f/2222222222c>>>>>>>>>>c2222222222g***********",
"788888888890aaaaaaaaaabccccccccccbaaaaaaaaaad***********",
"h444444444i;>>>>>>>>>>jkkkkkkkkkkj6666666666}***********",
"h444444444i;>>>>>>>>>>jkkkkkkkkkkj6666666666}***********",
"h444444444i;>>>>>>>>>>jkkkkkkkkkkj6666666666}***********",
"h444444444i;>>>>>>>>>>jkkkkkkkkkkj6666666666}***********",
"h444444444i;>>>>>>>>>>jkkkkkkkkkkj6666666666}***********",
"h444444444i;>>>>>>>>>>jkkkkkkkkkkj6666666666}***********",
"h444444444i;>>>>>>>>>>jkkkkkkkkkkj6666666666}***********",
"h444444444i;>>>>>>>>>>jkkkkkkkkkkj6666666666}***********",
"h444444444i;>>>>>>>>>>jkkkkkkkkkkj6666666666}***********",
"h444444444i;>>>>>>>>>>jkkkkkkkkkkj6666666666}***********",
"l:::::::::mn;;;;;;;;;;oppppppppppoqqqqqqqqqqrsssssssssss",
"t333333333u!~~~~~~~~~~v3333333333v----------wx~~~~~~~~~y",
"12222222223;>>>>>>>>>>a2222222222a==========z~>>>>>>>>>$",
"12222222223;>>>>>>>>>>a2222222222a==========z~>>>>>>>>>$",
"12222222223;>>>>>>>>>>a2222222222a==========z~>>>>>>>>>$",
"12222222223;>>>>>>>>>>a2222222222a==========z~>>>>>>>>>$",
"12222222223;>>>>>>>>>>a2222222222a==========z~>>>>>>>>>$",
"12222222223;>>>>>>>>>>a2222222222a==========z~>>>>>>>>>$",
"12222222223;>>>>>>>>>>a2222222222a==========z~>>>>>>>>>$",
"12222222223;>>>>>>>>>>a2222222222a==========z~>>>>>>>>>$",
"12222222223;>>>>>>>>>>a2222222222a==========z~>>>>>>>>>$",
"A111111111t#$$$$$$$$$$B1111111111B++++++++++Cy$$$$$$$$$D"};
